<?xml version="1.0" standalone="no"?>
<!DOCTYPE svg PUBLIC "-//W3C//DTD SVG 20010904//EN"
 "http://www.w3.org/TR/2001/REC-SVG-20010904/DTD/svg10.dtd">
<svg version="1.0" xmlns="http://www.w3.org/2000/svg"
 width="984.000000pt" height="984.000000pt" viewBox="0 0 984.000000 984.000000"
 preserveAspectRatio="xMidYMid meet">
<metadata>
Created by potrace 1.14, written by Peter Selinger 2001-2017
</metadata>
<g transform="translate(0.000000,984.000000) scale(0.100000,-0.100000)"
fill="#000000" stroke="none">
<path d="M6196 8925 c-73 -30 -147 -100 -184 -175 l-27 -55 0 -270 0 -270 28
-57 c36 -74 119 -150 195 -178 77 -29 205 -25 272 10 105 53 167 128 195 235
21 84 21 436 0 520 -29 112 -110 203 -218 247 -66 27 -188 23 -261 -7z"/>
<path d="M4123 7991 c-64 -24 -98 -47 -147 -101 -62 -69 -80 -120 -80 -230 -1
-136 16 -166 206 -362 189 -195 221 -213 368 -213 89 0 99 2 158 34 75 41 125
94 161 170 22 48 26 70 26 146 0 134 -21 170 -209 361 -180 182 -220 207 -351
211 -60 3 -93 -2 -132 -16z"/>
<path d="M8370 7989 c-46 -18 -81 -47 -217 -183 -139 -138 -166 -171 -194
-230 -26 -57 -32 -82 -33 -140 -1 -117 52 -225 142 -291 65 -48 127 -67 217
-66 127 1 164 23 358 220 141 143 167 174 185 223 32 85 37 144 18 218 -29
111 -87 185 -190 237 -72 37 -206 43 -286 12z"/>
<path d="M6109 7540 c-227 -22 -511 -105 -724 -213 -329 -165 -660 -466 -835
-760 -19 -31 -43 -58 -54 -61 -12 -3 -52 -6 -91 -6 -38 0 -131 -7 -205 -15
-641 -71 -1240 -314 -1725 -699 -121 -96 -366 -339 -459 -456 -297 -372 -486
-797 -561 -1262 -3 -21 -8 -38 -11 -38 -3 0 -50 -9 -104 -20 -616 -126 -1108
-595 -1260 -1204 -43 -173 -55 -298 -40 -425 43 -374 211 -721 475 -987 241
-242 530 -396 876 -466 l114 -23 1930 0 1930 0 67 33 c122 60 188 161 196 297
3 66 0 91 -18 140 -31 82 -122 174 -203 204 l-58 21 -1857 0 c-1197 0 -1882 4
-1927 11 -405 58 -732 368 -816 772 -13 66 -16 102 -9 140 44 273 197 513 423
666 72 49 206 109 294 132 55 15 128 23 243 28 152 7 170 9 228 36 79 35 152
112 181 190 15 40 23 96 30 217 16 267 69 473 181 706 296 615 916 1077 1660
1236 237 51 335 60 645 60 313 0 415 -11 645 -69 607 -154 1138 -540 1471
-1069 61 -98 160 -291 199 -389 29 -75 105 -158 174 -192 31 -15 98 -33 166
-45 479 -81 822 -315 1014 -692 63 -122 99 -232 121 -368 19 -120 19 -154 -1
-271 -45 -262 -162 -493 -350 -689 -188 -195 -409 -319 -680 -381 -89 -20
-136 -23 -449 -28 l-350 -6 -56 -28 c-69 -33 -132 -99 -167 -175 -22 -47 -27
-71 -27 -137 0 -164 91 -288 247 -337 53 -16 96 -18 358 -18 333 0 455 11 657
60 518 125 968 457 1249 920 116 191 201 410 251 647 24 113 27 150 27 318 1
161 -3 208 -23 305 -104 512 -396 949 -816 1224 -49 33 -93 62 -98 66 -4 3 19
62 52 131 257 542 263 1168 16 1729 -285 646 -873 1100 -1585 1224 -111 20
-432 29 -561 16z m431 -715 c645 -103 1132 -625 1179 -1265 20 -272 -31 -516
-160 -753 l-42 -77 -58 110 c-161 305 -346 550 -602 797 -375 361 -877 635
-1372 748 -66 15 -127 29 -135 32 -36 12 212 204 360 278 101 51 260 103 379
124 132 24 323 26 451 6z"/>
<path d="M9070 5799 c-116 -23 -229 -117 -270 -227 -28 -73 -25 -192 8 -264
29 -66 104 -143 171 -175 l56 -28 256 -3 c239 -3 259 -2 311 18 147 55 234
181 232 335 -1 97 -32 172 -97 239 -61 61 -121 93 -203 106 -72 12 -402 11
-464 -1z"/>
</g>
</svg>
