<svg width="93" height="123" viewBox="0 0 93 123" fill="none" xmlns="http://www.w3.org/2000/svg">
<path d="M71.144 1.211C70.403 0.682999 69.516 0.400024 68.607 0.400024C67.697 0.400024 66.81 0.682999 66.069 1.211C60.554 5.062 55.781 9.87899 51.982 15.43C51.607 15.901 51.333 16.445 51.177 17.027C51.022 17.609 50.989 18.217 51.079 18.813C51.17 19.409 51.383 19.979 51.704 20.489C52.026 20.998 52.449 21.436 52.947 21.775C53.446 22.113 54.009 22.345 54.601 22.455C55.194 22.566 55.802 22.553 56.389 22.417C56.977 22.282 57.529 22.026 58.013 21.667C58.497 21.308 58.901 20.853 59.201 20.33C61.828 16.522 64.997 13.117 68.607 10.223C82.169 21.205 86.457 35.992 82.476 44.086C81.142 46.639 79.156 48.793 76.72 50.329C74.284 51.866 71.485 52.731 68.607 52.836C65.729 52.731 62.929 51.866 60.494 50.329C58.058 48.793 56.072 46.639 54.738 44.086C53.535 41.475 53.037 38.593 53.294 35.73C53.34 35.155 53.273 34.577 53.095 34.029C52.918 33.48 52.634 32.972 52.26 32.534C51.887 32.095 51.43 31.734 50.917 31.472C50.404 31.209 49.844 31.051 49.269 31.005C48.695 30.959 48.117 31.026 47.568 31.204C47.02 31.381 46.512 31.665 46.073 32.039C45.635 32.412 45.274 32.869 45.011 33.382C44.749 33.895 44.59 34.455 44.544 35.03C44.148 39.453 44.917 43.903 46.776 47.936C48.845 51.981 51.972 55.391 55.823 57.802C59.675 60.213 64.108 61.536 68.651 61.63C73.194 61.536 77.626 60.213 81.478 57.802C85.329 55.391 88.456 51.981 90.526 47.936C97.044 33.98 88.951 13.855 71.144 1.211Z" fill="url(#paint0_linear_9_2)"/>
<path d="M57.669 87.879C56.509 87.879 55.396 88.34 54.576 89.161C53.755 89.981 53.294 91.094 53.294 92.254C53.544 95.696 52.864 99.141 51.325 102.229C49.32 105.765 46.432 108.721 42.943 110.807C39.454 112.893 35.483 114.037 31.419 114.129C27.38 114.048 23.429 112.926 19.95 110.872C16.471 108.818 13.58 105.902 11.557 102.404C5.99999 91.773 12.125 72.26 31.419 58.217C38.376 63.154 44.194 69.524 48.482 76.898C48.769 77.398 49.152 77.836 49.609 78.188C50.065 78.54 50.587 78.798 51.143 78.949C51.7 79.099 52.281 79.138 52.852 79.064C53.424 78.99 53.976 78.804 54.475 78.517C54.975 78.229 55.414 77.847 55.766 77.39C56.117 76.933 56.376 76.412 56.526 75.855C56.677 75.299 56.716 74.718 56.642 74.146C56.568 73.574 56.382 73.023 56.094 72.523C50.631 63.092 43.016 55.087 33.869 49.16C33.15 48.681 32.305 48.425 31.441 48.425C30.577 48.425 29.732 48.681 29.013 49.16C6.08799 64.473 -4.98103 89.585 3.81297 106.385C6.56497 111.313 10.565 115.43 15.41 118.325C20.255 121.22 25.776 122.791 31.419 122.879C37.054 122.799 42.569 121.242 47.414 118.363C52.258 115.484 56.262 111.384 59.025 106.473C61.288 102.09 62.331 97.179 62.044 92.254C62.044 91.094 61.583 89.981 60.763 89.161C59.942 88.34 58.83 87.879 57.669 87.879Z" fill="url(#paint1_linear_9_2)"/>
<path d="M18.775 83.505C17.627 83.382 16.478 83.718 15.576 84.439C14.675 85.16 14.095 86.208 13.963 87.355C13.608 90.381 13.926 93.448 14.895 96.337C15.863 99.226 17.457 101.866 19.563 104.067C22.59 107.115 26.516 109.109 30.763 109.755H31.419C32.579 109.842 33.727 109.464 34.609 108.706C35.491 107.947 36.035 106.868 36.122 105.708C36.209 104.548 35.832 103.4 35.073 102.518C34.314 101.636 33.236 101.092 32.075 101.005C29.704 100.649 27.502 99.563 25.775 97.899C24.611 96.62 23.733 95.108 23.197 93.464C22.662 91.819 22.482 90.08 22.669 88.361C22.736 87.786 22.688 87.203 22.528 86.647C22.368 86.091 22.099 85.571 21.737 85.12C21.374 84.668 20.926 84.293 20.418 84.015C19.909 83.738 19.351 83.565 18.775 83.505Z" fill="url(#paint2_linear_9_2)"/>
<defs>
<linearGradient id="paint0_linear_9_2" x1="68.604" y1="0.400024" x2="68.604" y2="61.63" gradientUnits="userSpaceOnUse">
<stop stop-color="#7CB1F8"/>
<stop offset="1" stop-color="#3495E3"/>
</linearGradient>
<linearGradient id="paint1_linear_9_2" x1="31.445" y1="48.425" x2="31.445" y2="122.879" gradientUnits="userSpaceOnUse">
<stop stop-color="#7CB1F8"/>
<stop offset="1" stop-color="#3495E3"/>
</linearGradient>
<linearGradient id="paint2_linear_9_2" x1="24.978" y1="83.48" x2="24.978" y2="109.767" gradientUnits="userSpaceOnUse">
<stop stop-color="#7CB1F8"/>
<stop offset="1" stop-color="#3495E3"/>
</linearGradient>
</defs>
</svg>
