<svg width="116" height="84" viewBox="0 0 116 84" fill="none" xmlns="http://www.w3.org/2000/svg">
<path d="M4.69995 30.625H51.79C55.59 30.625 59.23 29.012 61.92 26.14C64.61 23.268 66.12 19.374 66.12 15.312C66.12 11.251 64.61 7.35699 61.92 4.48499C59.23 1.61299 55.59 0 51.79 0H45.65C44.56 0 43.52 0.461006 42.75 1.28101C41.98 2.10201 41.55 3.215 41.55 4.375C41.55 5.535 41.98 6.64799 42.75 7.46899C43.52 8.28899 44.56 8.75 45.65 8.75H51.79C53.42 8.75 54.98 9.441 56.13 10.672C57.28 11.903 57.9301 13.572 57.9301 15.312C57.9301 17.053 57.28 18.722 56.13 19.953C54.98 21.184 53.42 21.875 51.79 21.875H4.69995C3.60995 21.875 2.57005 22.336 1.80005 23.156C1.03005 23.977 0.599976 25.09 0.599976 26.25C0.599976 27.41 1.03005 28.523 1.80005 29.344C2.57005 30.164 3.60995 30.625 4.69995 30.625Z" fill="url(#paint0_linear_2_49)"/>
<path d="M94.78 26.25H100.93C102.56 26.25 104.12 26.941 105.27 28.172C106.42 29.403 107.07 31.072 107.07 32.812C107.07 34.553 106.42 36.222 105.27 37.453C104.12 38.684 102.56 39.375 100.93 39.375H57.9301C56.8401 39.375 55.8 39.836 55.03 40.656C54.27 41.477 53.83 42.59 53.83 43.75C53.83 44.91 54.27 46.023 55.03 46.844C55.8 47.664 56.8401 48.125 57.9301 48.125H100.93C104.73 48.125 108.37 46.512 111.06 43.64C113.75 40.768 115.26 36.874 115.26 32.812C115.26 28.751 113.75 24.857 111.06 21.985C108.37 19.113 104.73 17.5 100.93 17.5H94.78C93.7 17.5 92.66 17.961 91.89 18.781C91.12 19.602 90.6899 20.715 90.6899 21.875C90.6899 23.035 91.12 24.148 91.89 24.969C92.66 25.789 93.7 26.25 94.78 26.25Z" fill="url(#paint1_linear_2_49)"/>
<path d="M25.17 39.375C24.08 39.375 23.04 39.836 22.27 40.656C21.51 41.477 21.08 42.59 21.08 43.75C21.08 44.91 21.51 46.023 22.27 46.844C23.04 47.664 24.08 48.125 25.17 48.125H41.55C42.64 48.125 43.68 47.664 44.45 46.844C45.21 46.023 45.65 44.91 45.65 43.75C45.65 42.59 45.21 41.477 44.45 40.656C43.68 39.836 42.64 39.375 41.55 39.375H25.17Z" fill="url(#paint2_linear_2_49)"/>
<path d="M100.93 52.5H78.41C77.32 52.5 76.28 52.961 75.51 53.781C74.74 54.602 74.3101 55.715 74.3101 56.875C74.3101 58.035 74.74 59.148 75.51 59.969C76.28 60.789 77.32 61.25 78.41 61.25H100.93C102.56 61.25 104.12 61.941 105.27 63.172C106.42 64.403 107.07 66.072 107.07 67.812C107.07 69.553 106.42 71.222 105.27 72.453C104.12 73.684 102.56 74.375 100.93 74.375H94.79C93.7 74.375 92.66 74.836 91.89 75.656C91.12 76.477 90.6899 77.59 90.6899 78.75C90.6899 79.91 91.12 81.023 91.89 81.844C92.66 82.664 93.7 83.125 94.79 83.125H100.93C104.73 83.125 108.37 81.512 111.06 78.64C113.75 75.768 115.26 71.874 115.26 67.812C115.26 63.751 113.75 59.857 111.06 56.985C108.37 54.113 104.73 52.5 100.93 52.5Z" fill="url(#paint3_linear_2_49)"/>
<path d="M62.03 52.5H4.69995C3.60995 52.5 2.57005 52.961 1.80005 53.781C1.03005 54.602 0.599976 55.715 0.599976 56.875C0.599976 58.035 1.03005 59.148 1.80005 59.969C2.57005 60.789 3.60995 61.25 4.69995 61.25H62.03C63.11 61.25 64.15 60.789 64.92 59.969C65.69 59.148 66.12 58.035 66.12 56.875C66.12 55.715 65.69 54.602 64.92 53.781C64.15 52.961 63.11 52.5 62.03 52.5Z" fill="url(#paint4_linear_2_49)"/>
<path d="M53.83 70H29.26C28.18 70 27.14 70.461 26.37 71.281C25.6 72.102 25.17 73.215 25.17 74.375C25.17 75.535 25.6 76.648 26.37 77.469C27.14 78.289 28.18 78.75 29.26 78.75H53.83C54.92 78.75 55.96 78.289 56.73 77.469C57.5 76.648 57.9301 75.535 57.9301 74.375C57.9301 73.215 57.5 72.102 56.73 71.281C55.96 70.461 54.92 70 53.83 70Z" fill="url(#paint5_linear_2_49)"/>
<path d="M12.89 70H4.69995C3.60995 70 2.57005 70.461 1.80005 71.281C1.03005 72.102 0.599976 73.215 0.599976 74.375C0.599976 75.535 1.03005 76.648 1.80005 77.469C2.57005 78.289 3.60995 78.75 4.69995 78.75H12.89C13.97 78.75 15.01 78.289 15.78 77.469C16.55 76.648 16.98 75.535 16.98 74.375C16.98 73.215 16.55 72.102 15.78 71.281C15.01 70.461 13.97 70 12.89 70Z" fill="url(#paint6_linear_2_49)"/>
<defs>
<linearGradient id="paint0_linear_2_49" x1="33.36" y1="0" x2="33.36" y2="30.625" gradientUnits="userSpaceOnUse">
<stop stop-color="#9EA8E1"/>
<stop offset="1" stop-color="#D0D7F1"/>
</linearGradient>
<linearGradient id="paint1_linear_2_49" x1="84.55" y1="17.5" x2="84.55" y2="48.125" gradientUnits="userSpaceOnUse">
<stop stop-color="#9EA8E1"/>
<stop offset="1" stop-color="#D0D7F1"/>
</linearGradient>
<linearGradient id="paint2_linear_2_49" x1="33.36" y1="39.375" x2="33.36" y2="48.125" gradientUnits="userSpaceOnUse">
<stop stop-color="#9EA8E1"/>
<stop offset="1" stop-color="#D0D7F1"/>
</linearGradient>
<linearGradient id="paint3_linear_2_49" x1="94.79" y1="52.5" x2="94.79" y2="83.125" gradientUnits="userSpaceOnUse">
<stop stop-color="#9EA8E1"/>
<stop offset="1" stop-color="#D0D7F1"/>
</linearGradient>
<linearGradient id="paint4_linear_2_49" x1="33.36" y1="52.5" x2="33.36" y2="61.25" gradientUnits="userSpaceOnUse">
<stop stop-color="#9EA8E1"/>
<stop offset="1" stop-color="#D0D7F1"/>
</linearGradient>
<linearGradient id="paint5_linear_2_49" x1="41.55" y1="70" x2="41.55" y2="78.75" gradientUnits="userSpaceOnUse">
<stop stop-color="#9EA8E1"/>
<stop offset="1" stop-color="#D0D7F1"/>
</linearGradient>
<linearGradient id="paint6_linear_2_49" x1="8.78998" y1="70" x2="8.78998" y2="78.75" gradientUnits="userSpaceOnUse">
<stop stop-color="#9EA8E1"/>
<stop offset="1" stop-color="#D0D7F1"/>
</linearGradient>
</defs>
</svg>
